<?xml version="1.0" encoding="UTF-8" standalone="no"?>
<svg
   version="1.0"
   width="1279.2798pt"
   height="871.31384pt"
   viewBox="0 0 1279.2798 871.31384"
   preserveAspectRatio="xMidYMid"
   id="svg8"
   sodipodi:docname="mando.svg"
   inkscape:version="1.2.2 (b0a8486541, 2022-12-01)"
   xmlns:inkscape="http://www.inkscape.org/namespaces/inkscape"
   xmlns:sodipodi="http://sodipodi.sourceforge.net/DTD/sodipodi-0.dtd"
   xmlns="http://www.w3.org/2000/svg"
   xmlns:svg="http://www.w3.org/2000/svg">
  <defs
     id="defs12" />
  <sodipodi:namedview
     id="namedview10"
     pagecolor="#ffffff"
     bordercolor="#111111"
     borderopacity="1"
     inkscape:showpageshadow="0"
     inkscape:pageopacity="0"
     inkscape:pagecheckerboard="1"
     inkscape:deskcolor="#d1d1d1"
     inkscape:document-units="pt"
     showgrid="false"
     inkscape:zoom="0.42909091"
     inkscape:cx="721.29237"
     inkscape:cy="783.05085"
     inkscape:window-width="1920"
     inkscape:window-height="1011"
     inkscape:window-x="0"
     inkscape:window-y="0"
     inkscape:window-maximized="1"
     inkscape:current-layer="svg8" />
  <metadata
     id="metadata2">
Created by potrace 1.15, written by Peter Selinger 2001-2017
</metadata>
  <g
     transform="matrix(0.1,0,0,-0.1,-0.6,824.92828)"
     fill="#000000"
     stroke="none"
     id="g1238"
     style="fill:#220055;fill-opacity:1">
    <path
       d="M 2870,8230 C 2500,8151 2108,7836 1713,7300 937,6246 262,4441 60,2885 16,2545 6,2385 6,2025 6,1659 16,1518 60,1270 195,521 548,96 1103,14 c 264,-39 525,12 787,153 249,134 457,300 750,599 257,262 426,464 860,1029 139,182 295,381 347,442 l 94,113 h 2459 2459 l 94,-113 c 52,-61 220,-276 375,-477 456,-594 628,-795 918,-1080 246,-240 416,-374 629,-494 278,-156 547,-213 822,-172 129,19 235,52 344,107 679,340 915,1448 654,3064 -210,1300 -740,2753 -1371,3764 -204,326 -395,571 -619,797 -265,266 -479,405 -731,476 -79,23 -84,23 -934,26 -830,3 -856,2 -920,-17 -85,-26 -209,-105 -410,-261 -181,-140 -280,-204 -357,-232 -49,-17 -104,-18 -953,-18 -849,0 -904,1 -953,18 -77,28 -176,92 -357,232 -200,155 -324,234 -408,260 -62,19 -93,20 -896,19 -764,0 -838,-2 -916,-19 z M 9583,6986 c 105,-25 197,-106 233,-208 20,-55 20,-161 0,-216 -83,-232 -381,-295 -546,-116 -65,70 -85,123 -85,224 0,65 5,96 21,131 42,90 125,159 223,185 60,16 84,16 154,0 z M 3360,6495 v -355 h 355 355 l -2,-236 -3,-235 -352,1 h -353 l -2,-357 -3,-358 -237,-3 -238,-2 v 360 360 h -355 -355 v 235 235 h 355 355 v 355 355 h 240 240 z m 5423,-309 c 108,-25 207,-118 237,-222 18,-62 9,-180 -18,-236 -31,-63 -96,-126 -162,-157 -80,-37 -192,-36 -271,2 -66,32 -132,99 -162,165 -31,66 -31,198 -1,263 43,92 132,165 231,188 55,13 81,12 146,-3 z m 1684,-26 c 113,-56 178,-161 178,-290 0,-65 -5,-85 -33,-142 -58,-119 -161,-183 -292,-183 -132,1 -234,65 -292,183 -28,57 -33,76 -33,142 1,60 6,87 27,131 80,174 273,243 445,159 z m -805,-808 c 64,-31 126,-96 157,-162 34,-73 36,-191 4,-262 -30,-66 -95,-133 -162,-165 -48,-24 -68,-28 -141,-28 -73,0 -93,4 -142,28 -167,82 -234,293 -142,453 31,55 114,129 167,148 64,24 199,17 259,-12 z M 5155,4065 c 241,-51 446,-255 501,-501 34,-154 4,-333 -78,-472 -52,-89 -160,-191 -253,-239 -107,-55 -189,-76 -305,-76 -256,-1 -480,139 -590,368 -50,105 -64,169 -63,285 1,257 138,473 370,586 127,62 275,79 418,49 z m 2768,0 c 137,-29 284,-121 371,-231 96,-122 139,-252 139,-414 -1,-185 -66,-333 -204,-465 -127,-121 -273,-179 -449,-178 -177,1 -333,65 -455,188 -123,124 -183,257 -192,425 -7,123 13,220 69,333 82,164 260,303 438,341 85,19 199,19 283,1 z"
       id="path1236"
       style="fill:#220055;fill-opacity:1" />
  </g>
  <ellipse
     style="fill:#0066ff;fill-opacity:1;stroke-width:1.80161;stroke-linecap:round;stroke-linejoin:round;paint-order:markers fill stroke"
     id="path992-3-7"
     cx="868.24725"
     cy="291.60278"
     rx="37.268791"
     ry="39.866714" />
  <ellipse
     style="fill:#dfd452;fill-opacity:1;stroke-width:1.80161;stroke-linecap:round;stroke-linejoin:round;paint-order:markers fill stroke"
     id="path992"
     cx="943.17743"
     cy="205.93613"
     rx="37.268791"
     ry="39.866714" />
  <ellipse
     style="fill:#1a8d53;fill-opacity:1;stroke-width:1.80161;stroke-linecap:round;stroke-linejoin:round;paint-order:markers fill stroke"
     id="path992-3"
     cx="1031.1279"
     cy="285.89487"
     rx="37.268791"
     ry="39.866714" />
  <ellipse
     style="fill:#d40055;fill-opacity:1;stroke-width:1.80161;stroke-linecap:round;stroke-linejoin:round;paint-order:markers fill stroke"
     id="path992-3-6"
     cx="950.27478"
     cy="368.96701"
     rx="37.268791"
     ry="39.866714" />
  <ellipse
     style="fill:#3e3748;fill-opacity:1;stroke-width:2.37826;stroke-linecap:round;stroke-linejoin:round;paint-order:markers fill stroke"
     id="path1165"
     cx="494.52151"
     cy="527.47461"
     rx="92.78109"
     ry="93.979347" />
  <ellipse
     style="fill:#3e3748;fill-opacity:1;stroke-width:2.37826;stroke-linecap:round;stroke-linejoin:round;paint-order:markers fill stroke"
     id="ellipse1167"
     cx="775.36377"
     cy="518.01147"
     rx="92.78109"
     ry="93.979347" />
  <rect
     style="fill:#3e3748;fill-opacity:1;stroke-width:2.37826;stroke-linecap:round;stroke-linejoin:round;paint-order:markers fill stroke"
     id="rect1221"
     width="269.10547"
     height="239.22762"
     x="184.75052"
     y="161.15347" />
  <g
     transform="matrix(0.1,0,0,-0.1,-0.6,871.42828)"
     fill="#000000"
     stroke="none"
     id="g6"
     style="fill:#11002b;fill-opacity:1">
    <path
       d="M 2870,8230 C 2500,8151 2108,7836 1713,7300 937,6246 262,4441 60,2885 16,2545 6,2385 6,2025 6,1659 16,1518 60,1270 195,521 548,96 1103,14 c 264,-39 525,12 787,153 249,134 457,300 750,599 257,262 426,464 860,1029 139,182 295,381 347,442 l 94,113 h 2459 2459 l 94,-113 c 52,-61 220,-276 375,-477 456,-594 628,-795 918,-1080 246,-240 416,-374 629,-494 278,-156 547,-213 822,-172 129,19 235,52 344,107 679,340 915,1448 654,3064 -210,1300 -740,2753 -1371,3764 -204,326 -395,571 -619,797 -265,266 -479,405 -731,476 -79,23 -84,23 -934,26 -830,3 -856,2 -920,-17 -85,-26 -209,-105 -410,-261 -181,-140 -280,-204 -357,-232 -49,-17 -104,-18 -953,-18 -849,0 -904,1 -953,18 -77,28 -176,92 -357,232 -200,155 -324,234 -408,260 -62,19 -93,20 -896,19 -764,0 -838,-2 -916,-19 z M 9583,6986 c 105,-25 197,-106 233,-208 20,-55 20,-161 0,-216 -83,-232 -381,-295 -546,-116 -65,70 -85,123 -85,224 0,65 5,96 21,131 42,90 125,159 223,185 60,16 84,16 154,0 z M 3360,6495 v -355 h 355 355 l -2,-236 -3,-235 -352,1 h -353 l -2,-357 -3,-358 -237,-3 -238,-2 v 360 360 h -355 -355 v 235 235 h 355 355 v 355 355 h 240 240 z m 5423,-309 c 108,-25 207,-118 237,-222 18,-62 9,-180 -18,-236 -31,-63 -96,-126 -162,-157 -80,-37 -192,-36 -271,2 -66,32 -132,99 -162,165 -31,66 -31,198 -1,263 43,92 132,165 231,188 55,13 81,12 146,-3 z m 1684,-26 c 113,-56 178,-161 178,-290 0,-65 -5,-85 -33,-142 -58,-119 -161,-183 -292,-183 -132,1 -234,65 -292,183 -28,57 -33,76 -33,142 1,60 6,87 27,131 80,174 273,243 445,159 z m -805,-808 c 64,-31 126,-96 157,-162 34,-73 36,-191 4,-262 -30,-66 -95,-133 -162,-165 -48,-24 -68,-28 -141,-28 -73,0 -93,4 -142,28 -167,82 -234,293 -142,453 31,55 114,129 167,148 64,24 199,17 259,-12 z M 5155,4065 c 241,-51 446,-255 501,-501 34,-154 4,-333 -78,-472 -52,-89 -160,-191 -253,-239 -107,-55 -189,-76 -305,-76 -256,-1 -480,139 -590,368 -50,105 -64,169 -63,285 1,257 138,473 370,586 127,62 275,79 418,49 z m 2768,0 c 137,-29 284,-121 371,-231 96,-122 139,-252 139,-414 -1,-185 -66,-333 -204,-465 -127,-121 -273,-179 -449,-178 -177,1 -333,65 -455,188 -123,124 -183,257 -192,425 -7,123 13,220 69,333 82,164 260,303 438,341 85,19 199,19 283,1 z"
       id="path4"
       style="fill:#11002b;fill-opacity:1" />
  </g>
</svg>
